<svg xmlns="http://www.w3.org/2000/svg" width="48" height="37.733"><path d="M47.733 11.2l.067-.067c0-.067.067-.067.067-.133a.065.065 0 01.067-.067A.233.233 0 0148 10.8v-.667c0-.067 0-.133-.067-.133 0-.067 0-.067-.067-.067 0-.067-.067-.067-.067-.133l-.067-.067a.065.065 0 00-.067-.067l-7.8-9.2a1.418 1.418 0 00-1-.467H9.133a1.418 1.418 0 00-1 .467l-7.8 9a.065.065 0 01-.067.067L.2 9.6c0 .067-.067.067-.067.133a.065.065 0 01-.067.067.233.233 0 01-.066.133v.667c0 .067 0 .133.067.133 0 .067 0 .067.067.067 0 .067.067.067.067.133L.268 11a.065.065 0 00.067.067L23 37.333l.133.133.067.067h.067a.233.233 0 00.133.067.065.065 0 01.067.067c.067 0 .067 0 .133.067h.8c.067 0 .067 0 .133-.067a.065.065 0 00.067-.067c.067 0 .067-.067.133-.067h.067l.067-.067.133-.133 22.667-26.266c0 .133.066.133.066.133zm-35.8.467l7.467 17.6-15.133-17.6zm13.4 0H33.2l-7.867 18.466zm-2.666 18.466L14.8 11.667h7.867zm13.4-18.467h7.667L28.6 29.333zM43.733 9h-7.666l-2.733-6.333h4.933zM33.2 9h-7.867V2.667h5.133zM22.667 2.667V9H14.8l2.733-6.333zm-12.933 0h4.933L11.933 9H4.267z"/></svg>