<svg xmlns="http://www.w3.org/2000/svg" viewBox="0 0 512 512" style="width:48px;height:48px"><path d="M256 0C114.562 0 0 114.641 0 256c0 141.363 114.562 256 256 256 141.363 0 256-114.637 256-256C512 114.641 397.363 0 256 0zm5.836 222.711l.164.011c-.957-4-1.438-8.16-1.438-12.48 0-30.242 24.558-54.801 54.801-54.801 15.758 0 30 6.641 40 17.359 10.234-2.035 19.938-5.531 28.938-10.187 1.946-.969 3.89-1.934 5.793-3.008-3.266 10.133-9.511 18.902-17.562 25.473-2.058 1.625-4.152 3.218-6.465 4.523.102-.008.199-.031.297-.043-.098.058-.18.145-.281.203 8.934-1.035 17.531-3.218 25.71-6.285 1.867-.66 3.738-1.332 5.59-2.082-7.34 10.879-16.566 20.496-27.223 28.129.16 2.398.16 4.719.16 7.118 0 72.402-55.117 155.922-155.918 155.922-30.961 0-59.762-9.039-84-24.641 4.32.481 8.641.801 13.121.801 18.711 0 36.29-4.714 51.711-12.945.328-.176.668-.321.996-.5.985-.539 1.926-1.145 2.89-1.711 4.266-2.473 8.43-5.156 12.398-8.203-.062 0-.125-.015-.191-.019.062-.047.133-.09.195-.141-20.902-.352-38.988-12.492-47.918-30.066a55.112 55.112 0 01-3.184-7.918c3.329.626 6.734.946 10.219.946 3.644 0 7.129-.453 10.55-1.121 1.301-.211 2.614-.375 3.898-.645-.102-.019-.195-.066-.297-.09.106-.027.223-.035.328-.066-25.121-5.039-44-27.199-44-53.758v-.64a54.856 54.856 0 0019.157 6.289c1.867.289 3.742.523 5.633.641-.07-.047-.133-.11-.207-.16.102.003.199.027.297.027-14.718-9.84-24.398-26.558-24.398-45.598 0-8.594 2.106-16.719 5.668-23.981.598-1.164 1.129-2.359 1.816-3.484 26.614 32.66 66.317 54.308 111.176 57.011.531.035 1.051.141 1.586.168-.006-.017-.006-.033-.01-.048z" fill="#fff"/></svg>