<svg xmlns="http://www.w3.org/2000/svg" width="48" height="48"><path d="M26.532 13.473a6.033 6.033 0 00-2.556-.455 5.554 5.554 0 00-3.516 1.155 4.878 4.878 0 00-1.935 3.344 4.82 4.82 0 00-.007.938.234.234 0 00.234.21h1.659a.234.234 0 00.234-.234 5.133 5.133 0 01.063-.8 2.812 2.812 0 011.122-1.745 3.408 3.408 0 012.174-.671 4.108 4.108 0 011.589.241 2.431 2.431 0 011.677 2.22c0 1.406-.852 2.049-2.358 3.061a4.807 4.807 0 00-2.408 4.16v.859a.234.234 0 00.234.234h1.719a.234.234 0 00.234-.234v-.859a2.594 2.594 0 011.441-2.344c1.559-1.048 3.325-2.234 3.325-4.877a4.6 4.6 0 00-2.925-4.203z" fill="none"/><path d="M24 0a24 24 0 1024 24A24.006 24.006 0 0024 0zm1.305 37.75h-3.776a.321.321 0 01-.32-.321v-3.775a.321.321 0 01.32-.321h3.776a.321.321 0 01.32.321v3.775a.321.321 0 01-.32.321zm2.125-12.375c-2.026 1.36-2.305 2.606-2.305 3.75V30.5a.375.375 0 01-.375.375H22a.375.375 0 01-.375-.375v-1.375a7.692 7.692 0 013.853-6.657c2.41-1.618 3.773-2.643 3.773-4.9 0-1.533-.875-2.7-2.686-3.558a6.564 6.564 0 00-2.542-.386 5.455 5.455 0 00-3.48 1.076 4.478 4.478 0 00-1.793 2.8 8.214 8.214 0 00-.105 1.285.375.375 0 01-.375.375h-2.656a.375.375 0 01-.375-.336 7.711 7.711 0 01.011-1.5 7.822 7.822 0 013.1-5.35 8.912 8.912 0 015.625-1.848 9.8 9.8 0 014.09.728c3.026 1.439 4.689 3.825 4.689 6.718-.004 4.228-2.83 6.128-5.324 7.803z" fill="#aa0601"/></svg>