<svg width="24" height="24" xmlns="http://www.w3.org/2000/svg" fill-rule="evenodd" clip-rule="evenodd"><path d="M19 24H5a5 5 0 01-5-5V5a5 5 0 015-5h14a5 5 0 015 5v14a5 5 0 01-5 5zm1-12.508C20 7.912 16.411 5 12 5s-8 2.912-8 6.492c0 3.209 2.846 5.897 6.691 6.405.26.056.615.172.704.395.081.202.053.519.026.723l-.114.685c-.035.202-.161.791.693.431.854-.36 4.607-2.713 6.286-4.645h-.001C19.445 14.215 20 12.925 20 11.492zM9.022 13.559H6.78l-.108-.043v-.001l-.001-.001-.003-.003-.044-.107V9.918c0-.086.07-.156.156-.156h.562c.085 0 .155.07.155.156v2.768h1.525c.086 0 .155.07.155.156v.561a.155.155 0 01-.155.156zm8.314 0h-2.242l-.108-.043-.004-.005-.044-.107V9.918l.044-.107.004-.005.108-.044h2.242c.086 0 .155.07.155.156v.561a.155.155 0 01-.155.156h-1.525v.589h1.525c.086 0 .155.07.155.156v.561a.155.155 0 01-.155.156h-1.525v.589h1.525c.086 0 .155.07.155.156v.561a.155.155 0 01-.155.156zm-6.961 0h-.562a.155.155 0 01-.156-.155V9.918c0-.086.07-.156.156-.156h.562c.086 0 .155.07.155.156v3.486a.155.155 0 01-.155.155zm1.418 0h-.561a.155.155 0 01-.156-.155V9.918c0-.086.07-.156.156-.156h.561l.013.001.015.002.009.002.015.004.005.002.014.006.013.008.008.005.012.01.003.003.01.011.013.015 1.597 2.158V9.918c0-.086.07-.156.156-.156h.561c.086 0 .156.07.156.156v3.486c0 .085-.07.155-.156.155h-.561l-.04-.005-.002-.001-.016-.005-.007-.003-.012-.006-.01-.006-.001-.001-.04-.039-1.599-2.16v2.071c0 .085-.07.155-.156.155z"/></svg>