<svg xmlns="http://www.w3.org/2000/svg" width="20" height="20"><path d="M14.167 1.667a4.179 4.179 0 014.167 4.167v8.333a4.179 4.179 0 01-4.167 4.167H5.833a4.179 4.179 0 01-4.167-4.167V5.833a4.179 4.179 0 014.167-4.167h8.333m0-1.667H5.833A5.851 5.851 0 000 5.833v8.333A5.851 5.851 0 005.833 20h8.333A5.851 5.851 0 0020 14.167V5.833A5.851 5.851 0 0014.167 0z"/><path d="M15.18 6.454a1.629 1.629 0 111.156-.477 1.633 1.633 0 01-1.156.477zM10 6.979A3.021 3.021 0 116.979 10 3.021 3.021 0 0110 6.979m0-1.51A4.531 4.531 0 1014.531 10 4.531 4.531 0 0010 5.469z"/></svg>