<svg version="1.1" id="_x31_0" xmlns="http://www.w3.org/2000/svg" x="0" y="0" viewBox="0 0 512 512" style="width:48px;height:48px" xml:space="preserve" opacity="1"><style>.st0{fill:#374149}</style><path class="st0" d="M363.024 0H148.976C69.063 0 4.281 64.782 4.281 144.695v222.61C4.281 447.218 69.063 512 148.976 512h214.047c79.914 0 144.695-64.782 144.695-144.695v-222.61C507.719 64.782 442.937 0 363.024 0zM55.652 144.695c0-51.461 41.863-93.324 93.324-93.324h214.047c51.461 0 93.324 41.863 93.324 93.324v222.61c0 51.461-41.863 93.324-93.324 93.324H148.976c-51.461 0-93.324-41.863-93.324-93.324v-222.61z" fill="#4b4b4b"/><path class="st0" d="M256 387.851c72.703 0 131.852-59.148 131.852-131.851S328.703 124.145 256 124.145c-72.702 0-131.851 59.152-131.851 131.855S183.297 387.851 256 387.851zm0-222.609c50.043 0 90.754 40.714 90.754 90.758S306.043 346.758 256 346.758c-50.042 0-90.754-40.714-90.754-90.758s40.711-90.758 90.754-90.758z" fill="#4b4b4b"/><ellipse class="st0" cx="391.707" cy="120.296" rx="29.539" ry="29.541" fill="#4b4b4b"/></svg>