<svg xmlns="http://www.w3.org/2000/svg" viewBox="0 0 512 512" style="width:48px;height:48px"><path d="M256 1.925c-141.383 0-256 105.91-256 236.558 0 73.375 36.156 138.942 92.894 182.332v82.328c0 5.348 5.809 8.676 10.422 5.973l76.39-44.762c24.098 6.946 49.722 10.687 76.293 10.687 141.386 0 256-105.91 256-236.558C512 107.835 397.386 1.925 256 1.925zm160.367 177.308L284.801 318.272l-3.039 3.21-66.625-66.406-118.758 64.188a3.002 3.002 0 01-3.809-.813l-.004-.004a3.003 3.003 0 01.203-3.886l131.828-139.289 4.191-4.426 65.942 67.879 118.027-64.187a2.998 2.998 0 013.61 4.695z" fill="#4b4b4b"/></svg>