<svg xmlns="http://www.w3.org/2000/svg" viewBox="0 0 512 512" style="width:48px;height:48px"><path d="M256 0C114.641 0 0 114.637 0 256c0 141.359 114.641 256 256 256s256-114.641 256-256C512 114.637 397.359 0 256 0zm-38.481 412V269.68H169.68v-55.442h47.839v-40.879c0-14.77 2.813-27.442 7.954-37.898.21-.43.461-.828.683-1.254.821-1.578 1.668-3.133 2.594-4.606.449-.707.949-1.363 1.418-2.047.801-1.16 1.59-2.328 2.457-3.418.527-.664 1.11-1.27 1.66-1.91.922-1.062 1.832-2.133 2.821-3.121.438-.434.914-.824 1.359-1.246 1.211-1.141 2.434-2.27 3.734-3.301.156-.121.324-.226.477-.347C254.742 104.863 270.558 100 288.879 100c20.238 0 37.679 1.519 42.801 2.238v49.602h-29.36c-23.042 0-27.523 10.961-27.523 26.961v35.438h49.207l5.672.019-7.118 55.422h-47.762V412h-57.277z"/></svg>