<svg xmlns="http://www.w3.org/2000/svg" width="28" height="21"><defs><style>.a{fill:none;stroke:#000;stroke-linejoin:round;stroke-miterlimit:10;stroke-width:2px}</style></defs><g transform="translate(-2 -7)"><circle class="a" cx="3" cy="3" r="3" transform="translate(13 16)"/><path class="a" d="M12.7 12h6.6c1.2 0 2.1.4 2.1 1.7a2.242 2.242 0 002.2 2.3H29a7.818 7.818 0 00-7.6-8H10.6A7.818 7.818 0 003 16h5.4a2.308 2.308 0 002.2-2.3c0-1.3.9-1.7 2.1-1.7z"/><path d="M23 25v2M9 25v2" stroke-linecap="round" fill="none" stroke="#000" stroke-linejoin="round" stroke-miterlimit="10" stroke-width="2"/><path class="a" d="M9 16c-1.5 2.4-3 6.1-3 9h20c0-2.9-1.5-6.6-3-9"/></g></svg>