<svg xmlns="http://www.w3.org/2000/svg" width="20" height="20" viewBox="0 0 20 20"><g transform="translate(-32 -32)"><path d="M46.167,33.667a4.179,4.179,0,0,1,4.167,4.167v8.333a4.179,4.179,0,0,1-4.167,4.167H37.833a4.179,4.179,0,0,1-4.167-4.167V37.833a4.179,4.179,0,0,1,4.167-4.167h8.333m0-1.667H37.833A5.851,5.851,0,0,0,32,37.833v8.333A5.851,5.851,0,0,0,37.833,52h8.333A5.851,5.851,0,0,0,52,46.167V37.833A5.851,5.851,0,0,0,46.167,32Z"/><path d="M350.963,109.936a1.629,1.629,0,1,1,1.156-.477A1.633,1.633,0,0,1,350.963,109.936Z" transform="translate(-303.783 -71.482)"/><path d="M148.531,145.51a3.021,3.021,0,1,1-3.021,3.021,3.021,3.021,0,0,1,3.021-3.021m0-1.51a4.531,4.531,0,1,0,4.531,4.531A4.531,4.531,0,0,0,148.531,144Z" transform="translate(-106.531 -106.531)"/></g></svg>